<?xml version="1.0" encoding="utf-8"?>
<!-- Generator: Adobe Illustrator 24.1.0, SVG Export Plug-In . SVG Version: 6.00 Build 0)  -->
<svg version="1.1" id="Capa_1" xmlns="http://www.w3.org/2000/svg" xmlns:xlink="http://www.w3.org/1999/xlink" x="0px" y="0px"
	 viewBox="0 0 3540.2 1060.4" style="enable-background:new 0 0 3540.2 1060.4;" xml:space="preserve">
<style type="text/css">
	.st0{fill:#1D84C6;}
	.st1{fill:#246CA4;}
	.st2{fill:#37A0DC;}
	.st3{fill:#7D7D7E;}
</style>
<path class="st0" d="M391.2,166.6c60.8,0,118,23.7,161,66.7c43,43,66.7,100.2,66.7,161s-23.7,118-66.7,161
	c-43,43-100.2,66.7-161,66.7s-118-23.7-161-66.7c-43-43-66.7-100.2-66.7-161s23.7-118,66.7-161C273.2,190.3,330.3,166.6,391.2,166.6
	 M391.2,3.2C175.1,3.2,0,178.3,0,394.3s175.1,391.1,391.1,391.1s391.1-175.1,391.1-391.1S607.2,3.2,391.2,3.2L391.2,3.2z"/>
<g>
	<path class="st0" d="M657.7,680.5c-154,143.5-394,139.3-543-9.4l116-114.8c85.7,85.1,223,88.4,312.7,7.5L657.7,680.5z"/>
	<path class="st1" d="M782.3,394.3c0.1,108.6-45,212.3-124.5,286.2L543.5,563.7c93.5-83.8,101.4-227.5,17.6-321
		c-2.1-2.3-4.2-4.5-6.3-6.8l116.2-114.8C742.4,194.1,782.4,292.2,782.3,394.3z"/>
	<path class="st2" d="M230.8,556.3L114.7,671.1C-36.8,519.8-38.4,274.8,111,121.5l114.2,116.7C140.4,328.1,142.8,469.3,230.8,556.3
		L230.8,556.3z"/>
</g>
<g>
	<path class="st3" d="M146.9,1051.5h-16.4c-1.6,0.1-3.3-0.4-4.6-1.4c-1.2-1-2.1-2.2-2.6-3.6l-14.7-37.9H38.2l-14.7,37.9
		c-0.5,1.4-1.4,2.6-2.5,3.5c-1.3,1-2.9,1.6-4.6,1.5H0l62.7-156.8h21.4L146.9,1051.5z M44.1,993.2h58.6L78,929.4
		c-0.8-1.9-1.6-4.1-2.3-6.6c-0.8-2.5-1.5-5.1-2.3-8c-0.7,2.8-1.5,5.5-2.2,8s-1.6,4.7-2.3,6.6L44.1,993.2z"/>
	<path class="st3" d="M176.5,890.2v161.2h-19.5V890.2H176.5z"/>
	<path class="st3" d="M221.6,890.2v161.2h-19.5V890.2H221.6z"/>
	<path class="st3" d="M330.1,1053.2c-8.8,0-15.5-2.4-20.2-7.3c-4.7-4.9-7.1-11.9-7.1-21.1v-67.9h-13.4c-1.1,0-2.1-0.3-3-1
		c-0.9-0.8-1.3-2-1.2-3.2v-7.8l18.2-2.3l4.5-34.2c0.2-1,0.7-2,1.5-2.7c0.8-0.7,1.9-1.1,3-1h9.9v38.2h32.1v14.1h-32.1v66.5
		c0,4.7,1.1,8.1,3.4,10.4c2.3,2.3,5.5,3.5,8.8,3.4c1.8,0,3.6-0.2,5.3-0.8c1.4-0.5,2.7-1.1,3.9-1.8c1.1-0.6,2-1.2,2.8-1.8
		c0.6-0.5,1.3-0.8,2-0.8c1.2,0.1,2.2,0.8,2.7,1.9l5.7,9.3c-3.5,3.2-7.6,5.7-12.1,7.4C340.1,1052.3,335.1,1053.2,330.1,1053.2z"/>
	<path class="st3" d="M368,1051.5V890.2h19.6v65.2c4.5-4.9,9.9-9,15.8-12.1c6.2-3.1,13-4.7,19.9-4.5c5.5-0.1,10.9,0.9,16,3
		c4.5,1.9,8.5,4.8,11.6,8.5c3.2,3.9,5.6,8.4,7,13.3c1.7,5.6,2.5,11.3,2.4,17.2v70.6h-19.6v-70.6c0-8.4-1.9-14.9-5.7-19.5
		s-9.6-6.9-17.5-6.9c-5.7,0-11.3,1.4-16.2,4.2c-5.2,3-9.8,6.8-13.7,11.3v81.7L368,1051.5z"/>
	<path class="st3" d="M529,938.8c6.3-0.1,12.6,1.1,18.4,3.3c5.5,2.1,10.5,5.4,14.7,9.7c4.3,4.4,7.6,9.7,9.7,15.5
		c2.4,6.8,3.6,13.9,3.5,21.1c0,3.1-0.3,5.1-1,6.1s-1.9,1.5-3.7,1.5h-74.1c0,6.2,1,12.4,2.9,18.3c1.5,4.8,4,9.2,7.2,13
		c3,3.4,6.7,6.1,10.9,7.8c4.5,1.8,9.4,2.6,14.2,2.6c4.3,0.1,8.5-0.5,12.6-1.7c3.1-1,6.2-2.2,9.2-3.7c2.2-1.1,4.3-2.3,6.4-3.7
		c1.3-1,2.8-1.6,4.4-1.7c1.5-0.1,2.9,0.6,3.7,1.8l5.5,7.1c-2.5,3-5.4,5.5-8.6,7.6c-3.4,2.2-7,3.9-10.8,5.3
		c-3.9,1.4-7.8,2.4-11.9,3.1c-4,0.7-8.1,1-12.2,1c-7.2,0.1-14.4-1.2-21.2-3.9c-6.3-2.5-12.1-6.4-16.7-11.4
		c-4.9-5.4-8.7-11.7-11-18.5c-2.8-8.2-4.1-16.8-4-25.4c-0.1-7.4,1.1-14.7,3.6-21.7c2.2-6.5,5.7-12.4,10.2-17.5
		c4.5-5,10.1-8.9,16.3-11.6C514.2,940.1,521.6,938.7,529,938.8z M529.4,953.2c-9.4,0-16.8,2.7-22.2,8.1c-5.4,5.4-8.8,13-10.1,22.6
		h60.6c0.1-4.2-0.6-8.4-1.9-12.4c-1.2-3.6-3.1-6.9-5.6-9.7c-2.5-2.8-5.5-4.9-8.9-6.4C537.6,953.9,533.5,953.1,529.4,953.2z"/>
	<path class="st3" d="M625.8,940.6h15.3c1.4,0,2.8,0.4,3.9,1.2c1,0.7,1.7,1.7,2.1,2.9l21.2,71.4c0.6,2.6,1.1,5,1.6,7.5
		c0.5,2.5,1,4.9,1.3,7.3c0.6-2.4,1.2-4.8,2-7.3c0.8-2.5,1.5-4.9,2.3-7.5l23.4-71.9c0.4-1.1,1-2,1.9-2.7c1-0.7,2.1-1.1,3.3-1.1h8.5
		c2.5-0.1,4.8,1.4,5.6,3.8l22.9,71.8c0.7,2.6,1.4,5.1,2.1,7.5c0.7,2.5,1.3,4.9,1.9,7.3c0.4-2.4,0.9-4.8,1.5-7.3
		c0.6-2.5,1.2-5,1.8-7.6l21.7-71.4c0.4-1.2,1.1-2.2,2.1-2.9c1-0.8,2.3-1.2,3.6-1.2h14.7l-35.9,110.9h-15.4c-1.9,0-3.2-1.2-3.9-3.7
		l-24.5-75.2c-0.6-1.7-1-3.4-1.4-5.1c-0.4-1.7-0.7-3.4-1.1-5.1c-0.4,1.7-0.8,3.4-1.2,5.2c-0.4,1.8-0.9,3.5-1.4,5.1l-25,75.1
		c-0.7,2.5-2.1,3.7-4.4,3.7h-14.7L625.8,940.6z"/>
	<path class="st3" d="M848.2,938.8c7.5-0.1,14.9,1.2,21.9,4c6.3,2.6,12,6.5,16.6,11.5c4.7,5.2,8.3,11.3,10.6,18
		c4.9,15.4,4.9,31.9,0,47.2c-2.2,6.7-5.8,12.8-10.6,18c-4.6,5-10.3,8.9-16.6,11.4c-7,2.8-14.4,4.1-21.9,4c-7.5,0.1-15-1.2-22-4
		c-6.3-2.5-12-6.4-16.7-11.4c-4.7-5.2-8.3-11.3-10.5-18c-4.9-15.4-4.9-31.9,0-47.2c2.2-6.7,5.8-12.8,10.5-18
		c4.7-5,10.4-8.9,16.7-11.5C833.2,940.1,840.6,938.7,848.2,938.8z M848.2,1037.8c10.9,0,19.1-3.7,24.5-11c5.4-7.3,8.1-17.6,8.1-30.7
		c0-13.2-2.7-23.5-8.1-30.9c-5.4-7.4-13.6-11.1-24.5-11.1c-5-0.1-9.9,0.9-14.5,2.9c-4.1,1.8-7.6,4.7-10.3,8.2
		c-2.9,3.9-5,8.4-6.1,13.2c-1.4,5.8-2.1,11.7-2,17.7c0,13.1,2.7,23.4,8.2,30.7C828.9,1034.2,837.1,1037.8,848.2,1037.8z"/>
	<path class="st3" d="M919,1051.5V940.6h11.2c2.1,0,3.6,0.4,4.4,1.2c1,1.2,1.5,2.6,1.7,4.2l1.2,16.9c3.5-7.6,7.8-13.5,13-17.8
		c5.2-4.3,11.4-6.4,18.8-6.4c2.3,0,4.5,0.2,6.7,0.8c2,0.5,4,1.3,5.8,2.4l-1.4,14.6c-0.2,1.6-1.6,2.8-3.3,2.7c-1.5-0.1-3-0.3-4.5-0.7
		c-2.2-0.5-4.4-0.7-6.7-0.7c-3.2-0.1-6.4,0.5-9.4,1.6c-2.7,1-5.3,2.6-7.4,4.6c-2.3,2.2-4.2,4.7-5.8,7.4c-1.8,3.2-3.4,6.6-4.6,10.1
		v70L919,1051.5z"/>
	<path class="st3" d="M1068,1051.5c-2.5,0.2-4.8-1.5-5.2-4l-1.8-13.5c-4.5,5.6-10,10.3-16.2,13.8c-6.4,3.5-13.7,5.3-21,5.2
		c-6,0.1-11.9-1.2-17.3-3.7c-5.2-2.5-9.8-6.2-13.2-10.8c-3.9-5.3-6.8-11.3-8.4-17.7c-2.1-8-3.1-16.2-3-24.4
		c-0.1-7.7,1-15.4,3.3-22.8c2-6.6,5.2-12.9,9.4-18.3c4-5.1,9.2-9.3,15-12.2c6.3-3,13.1-4.5,20.1-4.4c6-0.2,12,1,17.4,3.4
		c4.9,2.3,9.3,5.6,13,9.7v-61.5h19.5v161.2H1068z M1030.1,1037.2c5.9,0.1,11.7-1.4,16.8-4.4c5.1-3.3,9.6-7.5,13.2-12.4V967
		c-3.6-4.8-7.6-8.2-11.8-10.2c-4.5-2-9.3-3.1-14.2-3c-10.3,0-18.2,3.7-23.8,11c-5.6,7.3-8.3,17.9-8.3,31.6
		c-0.1,6.2,0.5,12.5,1.9,18.5c1,4.6,2.8,8.9,5.5,12.7c2.2,3.2,5.3,5.7,8.9,7.3C1022,1036.5,1026,1037.3,1030.1,1037.2L1030.1,1037.2
		z"/>
	<path class="st3" d="M1168.4,958.8c-0.7,1.5-2.3,2.5-4,2.4c-1.3-0.1-2.6-0.5-3.7-1.2c-1.4-0.8-3.1-1.7-5.1-2.7
		c-2.3-1.1-4.7-2-7.2-2.7c-3.2-0.9-6.5-1.3-9.8-1.3c-3,0-6,0.4-8.9,1.3c-2.4,0.7-4.7,1.9-6.7,3.5c-1.8,1.4-3.2,3.1-4.3,5.1
		c-1,1.9-1.5,4.1-1.5,6.3c-0.1,2.6,0.8,5.1,2.5,7.1c1.8,2,4,3.7,6.5,4.9c3,1.5,6,2.7,9.2,3.7c3.4,1.1,6.9,2.2,10.6,3.4
		c3.6,1.2,7.1,2.5,10.6,4c3.3,1.4,6.4,3.2,9.2,5.5c2.7,2.2,4.9,5,6.5,8.1c1.7,3.6,2.6,7.5,2.5,11.4c0,4.9-0.9,9.7-2.7,14.2
		c-1.8,4.3-4.6,8.2-8.1,11.3c-3.8,3.3-8.3,5.9-13.1,7.5c-5.8,1.9-11.9,2.8-18,2.7c-7.2,0.1-14.3-1.2-21-3.8
		c-5.9-2.3-11.3-5.5-16-9.7l4.6-7.5c0.5-0.9,1.2-1.6,2.1-2.2c0.9-0.6,2-0.8,3.1-0.8c1.5,0.1,3,0.6,4.2,1.5c1.5,1,3.2,2.2,5.3,3.4
		c2.4,1.4,5,2.5,7.6,3.4c3.6,1.1,7.4,1.6,11.2,1.5c3.4,0.1,6.8-0.4,10-1.5c2.6-0.8,5-2.2,7.1-4c1.8-1.6,3.3-3.6,4.2-5.8
		c0.9-2.2,1.4-4.6,1.4-7c0.1-2.7-0.8-5.4-2.5-7.6c-1.8-2.1-4-3.9-6.5-5.1c-3-1.5-6-2.8-9.2-3.7c-3.5-1.1-7-2.2-10.6-3.3
		c-3.6-1.2-7.2-2.5-10.6-4c-3.3-1.4-6.4-3.3-9.2-5.6c-2.7-2.3-5-5.2-6.5-8.4c-1.7-3.8-2.6-7.9-2.5-12.1c0-4.2,0.9-8.4,2.6-12.2
		c1.8-3.9,4.4-7.5,7.7-10.3c3.6-3.1,7.8-5.5,12.4-7.1c5.4-1.8,11.1-2.7,16.8-2.6c6.7-0.1,13.4,1.1,19.7,3.5c5.6,2.2,10.6,5.4,15,9.5
		L1168.4,958.8z"/>
	<path class="st3" d="M1266.3,905.8c0,1.8-0.4,3.6-1.2,5.3c-0.8,1.6-1.8,3.1-3.1,4.4c-1.3,1.3-2.8,2.3-4.5,3
		c-1.7,0.7-3.6,1.1-5.4,1.1c-1.8,0-3.6-0.4-5.3-1.1c-1.6-0.7-3.1-1.7-4.3-3c-1.2-1.3-2.3-2.8-3-4.4c-0.7-1.7-1.1-3.5-1.1-5.3
		c0-1.9,0.4-3.7,1.1-5.4c0.7-1.7,1.7-3.2,3-4.5c1.2-1.3,2.7-2.3,4.3-3c1.7-0.7,3.5-1.1,5.3-1.1c1.9,0,3.7,0.4,5.4,1.1
		c1.7,0.7,3.2,1.7,4.5,3c1.3,1.3,2.3,2.8,3.1,4.5C1265.9,902.1,1266.3,904,1266.3,905.8z M1262.2,940.6v110.9h-19.5V940.6
		L1262.2,940.6z"/>
	<path class="st3" d="M1287.6,1051.5V940.6h11.7c2.5-0.2,4.8,1.6,5.1,4.1l1.5,12c4.6-5.2,10.1-9.5,16.2-12.9
		c6.4-3.4,13.5-5.1,20.7-4.9c5.5-0.1,10.9,0.9,16,3c4.5,1.9,8.5,4.8,11.6,8.5c3.2,3.9,5.6,8.4,7,13.3c1.7,5.6,2.5,11.4,2.4,17.2
		v70.6h-19.6v-70.6c0-8.4-1.9-14.9-5.7-19.5s-9.7-6.9-17.5-6.9c-5.7,0-11.3,1.4-16.2,4.2c-5.2,3-9.8,6.8-13.7,11.3v81.7
		L1287.6,1051.5z"/>
	<path class="st3" d="M1486.7,1053.2c-8.8,0-15.5-2.4-20.2-7.3s-7.1-11.9-7.1-21.1v-67.9h-13.4c-1.1,0.1-2.2-0.3-3-1
		c-0.9-0.8-1.3-2-1.2-3.2v-7.8l18.2-2.3l4.5-34.3c0.2-1,0.7-2,1.5-2.7c0.8-0.7,1.9-1.1,3-1h9.8v38.2h32.2v14.1h-32.1v66.5
		c0,4.7,1.1,8.1,3.4,10.4c2.3,2.3,5.5,3.5,8.8,3.4c1.8,0,3.6-0.2,5.3-0.8c1.4-0.5,2.7-1.1,3.9-1.8c1.1-0.6,2-1.2,2.8-1.8
		c0.6-0.5,1.3-0.8,2-0.8c1.2,0.1,2.2,0.8,2.7,1.9l5.7,9.3c-3.5,3.2-7.6,5.8-12.1,7.4C1496.7,1052.3,1491.7,1053.2,1486.7,1053.2z"/>
	<path class="st3" d="M1524.5,1051.5V890.2h19.6v65.2c4.5-4.9,9.9-9,15.8-12.1c6.2-3.1,13-4.7,19.9-4.5c5.5-0.1,10.9,0.9,16,3
		c4.5,1.9,8.5,4.8,11.6,8.5c3.2,3.9,5.6,8.4,7,13.3c1.7,5.6,2.5,11.4,2.4,17.2v70.6h-19.6v-70.6c0-8.4-1.9-14.9-5.7-19.5
		c-3.8-4.6-9.6-6.9-17.5-6.9c-5.7,0-11.3,1.4-16.2,4.2c-5.2,3-9.8,6.8-13.7,11.3v81.7L1524.5,1051.5z"/>
	<path class="st3" d="M1685.6,938.8c6.3-0.1,12.6,1.1,18.4,3.3c5.5,2.1,10.5,5.4,14.7,9.6c4.3,4.4,7.6,9.7,9.7,15.5
		c2.4,6.8,3.6,13.9,3.5,21.1c0,3.1-0.3,5.1-1,6.1s-1.9,1.5-3.7,1.5H1653c0,6.2,1,12.4,2.9,18.3c1.5,4.8,4,9.2,7.2,13
		c3,3.4,6.8,6.1,11,7.8c4.5,1.8,9.4,2.6,14.2,2.6c4.3,0.1,8.5-0.5,12.6-1.7c3.1-1,6.2-2.2,9.2-3.7c2.2-1.1,4.3-2.3,6.4-3.7
		c1.3-1,2.8-1.6,4.4-1.7c1.5-0.1,2.9,0.6,3.7,1.8l5.5,7.1c-2.5,3-5.4,5.5-8.6,7.6c-3.4,2.2-7,3.9-10.8,5.3
		c-3.9,1.4-7.8,2.4-11.9,3.1c-4,0.7-8.1,1-12.2,1c-7.2,0.1-14.4-1.2-21.2-3.9c-6.3-2.5-12.1-6.4-16.7-11.4
		c-4.9-5.4-8.7-11.7-11-18.5c-2.8-8.2-4.1-16.8-4-25.4c-0.1-7.4,1.1-14.7,3.6-21.7c2.2-6.4,5.7-12.4,10.2-17.5
		c4.5-5,10.1-8.9,16.3-11.6C1670.7,940.1,1678.1,938.7,1685.6,938.8z M1686,953.2c-9.4,0-16.8,2.7-22.2,8.1s-8.7,13-10.1,22.6h60.6
		c0-4.2-0.6-8.4-1.9-12.4c-1.2-3.6-3.1-6.9-5.6-9.7c-2.5-2.8-5.5-4.9-8.9-6.4C1694.1,953.9,1690.1,953.1,1686,953.2L1686,953.2z"/>
	<path class="st3" d="M1782.3,940.6h15.3c1.4,0,2.8,0.4,3.9,1.2c1,0.7,1.7,1.7,2.1,2.9l21.2,71.4c0.6,2.6,1.1,5,1.6,7.5
		s1,4.9,1.3,7.3c0.6-2.4,1.2-4.8,2-7.3s1.5-4.9,2.3-7.5l23.4-71.8c0.4-1.1,1-2,1.9-2.7c1-0.7,2.1-1.1,3.3-1.1h8.5
		c2.5-0.1,4.8,1.4,5.6,3.8l22.9,71.8c0.7,2.6,1.4,5.1,2.1,7.5c0.7,2.5,1.3,4.9,1.9,7.3c0.4-2.4,0.9-4.8,1.5-7.3
		c0.6-2.5,1.2-5,1.8-7.6l21.7-71.4c0.4-1.2,1.1-2.2,2.1-2.9c1-0.8,2.3-1.2,3.6-1.2h14.7l-35.9,110.9h-15.4c-1.9,0-3.2-1.2-3.9-3.7
		l-24.5-75.2c-0.6-1.7-1-3.4-1.4-5.1c-0.4-1.7-0.7-3.4-1.1-5.1c-0.4,1.7-0.8,3.4-1.2,5.2c-0.4,1.8-0.8,3.5-1.4,5.1l-25,75.1
		c-0.7,2.5-2.1,3.7-4.4,3.7h-14.7L1782.3,940.6z"/>
	<path class="st3" d="M2004.8,938.8c7.5-0.1,14.9,1.2,21.9,4c6.3,2.6,12,6.5,16.6,11.5c4.7,5.2,8.3,11.3,10.6,18
		c4.9,15.4,4.9,31.9,0,47.2c-2.2,6.7-5.8,12.8-10.6,18c-4.6,5-10.3,8.9-16.6,11.4c-7,2.8-14.4,4.1-21.9,4c-7.5,0.1-15-1.2-22-4
		c-6.3-2.5-12-6.4-16.7-11.4c-4.7-5.2-8.3-11.3-10.6-18c-4.9-15.4-4.9-31.9,0-47.2c2.2-6.7,5.8-12.8,10.6-18
		c4.7-5,10.4-8.9,16.7-11.5C1989.8,940.1,1997.2,938.7,2004.8,938.8z M2004.8,1037.8c11,0,19.1-3.7,24.5-11
		c5.4-7.3,8.1-17.6,8.1-30.7c0-13.2-2.7-23.5-8.1-30.9s-13.6-11.1-24.5-11.1c-5-0.1-9.9,0.9-14.5,2.9c-4.1,1.8-7.6,4.7-10.3,8.2
		c-2.9,3.9-5,8.4-6.1,13.2c-1.4,5.8-2.1,11.7-2,17.7c0,13.1,2.7,23.4,8.2,30.7C1985.4,1034.2,1993.7,1037.8,2004.8,1037.8z"/>
	<path class="st3" d="M2075.6,1051.5V940.6h11.2c2.1,0,3.6,0.4,4.4,1.2c1,1.2,1.6,2.6,1.7,4.2l1.2,16.9c3.5-7.6,7.8-13.5,13-17.8
		s11.4-6.4,18.8-6.4c2.3,0,4.5,0.2,6.7,0.8c2,0.5,4,1.3,5.8,2.4l-1.4,14.6c-0.2,1.6-1.6,2.8-3.3,2.7c-1.5-0.1-3-0.3-4.5-0.7
		c-2.2-0.5-4.4-0.7-6.7-0.7c-3.2-0.1-6.4,0.5-9.4,1.6c-2.7,1-5.2,2.6-7.4,4.6c-2.3,2.2-4.2,4.7-5.8,7.4c-1.8,3.2-3.4,6.6-4.6,10.1
		v70L2075.6,1051.5z"/>
	<path class="st3" d="M2168.8,890.2v161.2h-19.5V890.2H2168.8z"/>
	<path class="st3" d="M2273.9,1051.5c-2.5,0.2-4.8-1.5-5.2-4l-1.8-13.5c-4.5,5.6-10,10.3-16.2,13.8c-6.4,3.5-13.7,5.3-21,5.2
		c-6,0.1-11.9-1.2-17.3-3.7c-5.2-2.5-9.8-6.2-13.2-10.8c-3.9-5.3-6.8-11.3-8.4-17.7c-2.1-8-3.1-16.2-2.9-24.4
		c-0.1-7.7,1-15.4,3.3-22.8c2-6.6,5.2-12.9,9.4-18.3c4-5.1,9.2-9.3,15.1-12.2c6.3-3,13.1-4.5,20.1-4.4c6-0.2,12,1,17.5,3.4
		c4.9,2.4,9.3,5.6,13,9.7v-61.5h19.5v161.2H2273.9z M2236,1037.2c5.9,0.1,11.7-1.4,16.8-4.4c5.1-3.3,9.6-7.5,13.2-12.4V967
		c-3.6-4.8-7.6-8.2-11.8-10.2c-4.5-2-9.3-3.1-14.2-3c-10.3,0-18.2,3.7-23.8,11c-5.6,7.3-8.3,17.8-8.3,31.5
		c-0.1,6.2,0.5,12.5,1.9,18.5c1,4.6,2.8,8.9,5.5,12.7c2.2,3.2,5.3,5.7,8.9,7.3C2227.8,1036.5,2231.9,1037.3,2236,1037.2z"/>
	<path class="st3" d="M2306.5,1039.4c-0.1-5.5,3.1-10.5,8.2-12.7c3.4-1.5,7.3-1.5,10.7,0c1.6,0.7,3.1,1.7,4.4,3
		c1.2,1.3,2.3,2.7,2.9,4.4c1.5,3.4,1.5,7.3,0,10.8c-0.7,1.6-1.7,3.1-2.9,4.3c-1.3,1.2-2.7,2.2-4.4,2.9c-3.4,1.4-7.3,1.4-10.7,0
		c-1.6-0.7-3.1-1.6-4.3-2.9c-1.2-1.2-2.2-2.7-2.8-4.3C2306.8,1043.2,2306.5,1041.3,2306.5,1039.4z"/>
	<path class="st3" d="M2436.7,992.8v58.7h-21.1V894.6h46.3c9.9,0,18.6,1.1,25.9,3.4c6.7,2,12.9,5.3,18.2,9.8
		c4.8,4.2,8.5,9.4,10.8,15.3c2.4,6.4,3.7,13.2,3.6,20c0.1,6.9-1.2,13.7-3.8,20c-2.5,6-6.4,11.3-11.2,15.7
		c-5.3,4.6-11.5,8.1-18.2,10.3c-8.1,2.6-16.6,3.8-25.1,3.7L2436.7,992.8z M2436.7,976h25.2c5.4,0.1,10.8-0.7,16-2.4
		c4.3-1.4,8.3-3.7,11.7-6.7c3.2-2.9,5.6-6.4,7.2-10.3c1.6-4.2,2.5-8.7,2.4-13.2c0-10-3.1-17.8-9.3-23.4s-15.5-8.4-28.1-8.4h-25.2
		L2436.7,976z"/>
	<path class="st3" d="M2534.8,1051.5V940.6h11.2c2.1,0,3.6,0.4,4.4,1.2c1,1.2,1.5,2.6,1.6,4.2l1.2,16.8c3.5-7.6,7.8-13.5,13-17.8
		s11.4-6.4,18.8-6.4c2.3,0,4.5,0.2,6.7,0.8c2,0.5,4,1.3,5.8,2.4l-1.5,14.6c-0.2,1.6-1.6,2.8-3.3,2.7c-1.5-0.1-3-0.3-4.5-0.7
		c-2.2-0.5-4.4-0.7-6.7-0.7c-3.2-0.1-6.4,0.5-9.4,1.6c-2.7,1-5.3,2.6-7.4,4.6c-2.3,2.2-4.2,4.7-5.8,7.4c-1.8,3.2-3.4,6.6-4.6,10.1
		v70L2534.8,1051.5z"/>
	<path class="st3" d="M2651.3,938.8c7.5-0.1,14.9,1.2,21.9,4c6.3,2.6,12,6.5,16.6,11.5c4.7,5.2,8.3,11.3,10.6,18
		c4.9,15.4,4.9,31.9,0,47.2c-2.2,6.7-5.8,12.8-10.6,18c-4.6,5-10.3,8.9-16.6,11.4c-7,2.8-14.4,4.1-21.9,4c-7.5,0.1-15-1.2-22.1-4
		c-6.3-2.5-12-6.4-16.7-11.4c-4.7-5.2-8.3-11.3-10.6-18c-4.9-15.4-4.9-31.9,0-47.2c2.2-6.7,5.8-12.8,10.6-18
		c4.7-5,10.4-8.9,16.7-11.5C2636.3,940.1,2643.8,938.7,2651.3,938.8z M2651.3,1037.8c11,0,19.1-3.7,24.5-11
		c5.4-7.3,8.1-17.6,8.1-30.7c0-13.2-2.7-23.5-8.1-30.9s-13.6-11.1-24.5-11.1c-5-0.1-9.9,0.9-14.5,2.9c-4.1,1.8-7.6,4.7-10.3,8.2
		c-2.9,3.9-5,8.4-6.1,13.2c-1.4,5.8-2.1,11.7-2,17.7c0,13.1,2.7,23.4,8.1,30.7C2632,1034.2,2640.2,1037.8,2651.3,1037.8z"/>
	<path class="st3" d="M2723.2,1051.5V940.6h11.8c2.5-0.2,4.8,1.6,5.1,4.1l1.5,12c4.6-5.2,10.1-9.5,16.2-12.9
		c6.4-3.4,13.5-5.1,20.7-4.9c5.5-0.1,10.9,0.9,16,3c4.5,1.9,8.4,4.8,11.6,8.5c3.2,3.9,5.6,8.4,7.1,13.3c1.7,5.6,2.5,11.4,2.4,17.2
		v70.6H2796v-70.6c0-8.4-1.9-14.9-5.7-19.5c-3.8-4.6-9.6-6.9-17.5-6.9c-5.7,0-11.3,1.4-16.3,4.2c-5.2,3-9.8,6.8-13.7,11.3v81.7
		L2723.2,1051.5z"/>
	<path class="st3" d="M2886.6,938.8c7.5-0.1,14.9,1.2,21.9,4c6.3,2.6,12,6.5,16.6,11.5c4.7,5.2,8.3,11.3,10.6,18
		c4.9,15.4,4.9,31.9,0,47.2c-2.2,6.7-5.8,12.8-10.6,18c-4.6,5-10.3,8.9-16.6,11.4c-7,2.8-14.4,4.1-21.9,4c-7.5,0.1-15-1.2-22.1-4
		c-6.3-2.5-12-6.4-16.7-11.4c-4.7-5.2-8.3-11.3-10.6-18c-4.9-15.4-4.9-31.9,0-47.2c2.2-6.7,5.8-12.8,10.6-18
		c4.6-5,10.3-8.9,16.7-11.5C2871.6,940.1,2879.1,938.7,2886.6,938.8z M2886.6,1037.8c11,0,19.1-3.7,24.5-11
		c5.4-7.3,8.1-17.6,8.1-30.7c0-13.2-2.7-23.5-8.1-30.9c-5.4-7.4-13.6-11.1-24.5-11.1c-5-0.1-9.9,0.9-14.5,2.9
		c-4.1,1.8-7.6,4.6-10.3,8.2c-2.9,3.9-5,8.4-6.1,13.2c-1.4,5.8-2.1,11.7-2,17.7c0,13.1,2.7,23.4,8.1,30.7
		C2867.3,1034.2,2875.6,1037.8,2886.6,1037.8z"/>
	<path class="st3" d="M2977,940.6v70.7c0,8.4,1.9,14.9,5.7,19.5s9.7,6.9,17.6,6.9c5.6,0,11.2-1.4,16.1-4.1c5.3-2.9,10-6.7,13.9-11.3
		v-81.8h19.5v110.9h-11.6c-2.5,0.2-4.8-1.5-5.2-4l-1.5-11.9c-4.6,5.2-10.1,9.5-16.2,12.9c-6.3,3.3-13.4,5-20.6,4.9
		c-5.5,0.1-10.9-0.9-16-3c-4.5-1.9-8.5-4.8-11.6-8.5c-3.3-3.9-5.7-8.4-7.1-13.2c-1.6-5.6-2.4-11.4-2.4-17.2v-70.8H2977z"/>
	<path class="st3" d="M3075.1,1051.5V940.6h11.7c2.5-0.2,4.8,1.6,5.1,4.1l1.5,12c4.6-5.2,10.1-9.5,16.2-12.9
		c6.4-3.4,13.5-5.1,20.7-4.9c5.5-0.1,10.9,0.9,16,3c4.5,1.9,8.4,4.8,11.6,8.5c3.2,3.9,5.6,8.4,7.1,13.3c1.7,5.6,2.5,11.4,2.4,17.2
		v70.6h-19.6v-70.6c0-8.4-1.9-14.9-5.7-19.5c-3.8-4.6-9.6-6.9-17.5-6.9c-5.7,0-11.3,1.4-16.3,4.2c-5.2,3-9.8,6.8-13.7,11.3v81.7
		L3075.1,1051.5z"/>
	<path class="st3" d="M3269,960.3c-0.5,0.7-1.1,1.3-1.8,1.9c-0.7,0.5-1.6,0.7-2.4,0.7c-1.3-0.1-2.6-0.6-3.6-1.4
		c-1.3-0.9-3-1.9-4.9-3c-2.3-1.2-4.7-2.2-7.1-3c-8.2-2.3-16.9-1.7-24.8,1.5c-4.1,1.9-7.7,4.8-10.5,8.4c-2.9,4-5.1,8.5-6.3,13.2
		c-1.5,5.7-2.2,11.5-2.1,17.4c-0.1,6,0.7,12.1,2.3,17.9c1.3,4.8,3.5,9.2,6.5,13.1c2.7,3.5,6.2,6.2,10.2,8.1
		c4.2,1.9,8.8,2.8,13.4,2.8c6.9,0.3,13.6-1.6,19.3-5.5c2-1.4,3.7-2.6,5-3.8c1.1-1,2.5-1.6,4-1.7c1.5-0.1,2.9,0.6,3.8,1.9l5.5,7.1
		c-2.4,2.9-5.1,5.5-8.2,7.7c-3.1,2.1-6.4,3.9-9.9,5.3c-3.6,1.4-7.3,2.5-11.1,3.1c-3.9,0.7-7.9,1-11.8,1c-6.6,0.1-13.2-1.2-19.3-3.8
		c-5.9-2.5-11.2-6.3-15.5-11.1c-4.6-5.2-8.1-11.3-10.3-17.9c-4.9-15.3-4.9-31.7-0.3-47.1c2.1-6.7,5.5-12.8,10.1-18.1
		c4.5-5.1,10.1-9.2,16.3-11.9c7-3,14.6-4.4,22.2-4.3c7.1-0.1,14.1,1.1,20.6,3.8c5.9,2.5,11.3,6.1,15.8,10.7L3269,960.3z"/>
	<path class="st3" d="M3334.4,938.8c6.3-0.1,12.6,1.1,18.4,3.3c5.5,2.1,10.5,5.4,14.7,9.6c4.3,4.4,7.6,9.7,9.7,15.5
		c2.5,6.7,3.6,13.9,3.5,21.1c0,3.1-0.3,5.1-1,6.1s-1.9,1.5-3.7,1.5h-74.1c0,6.2,1,12.4,2.8,18.3c1.5,4.8,4,9.2,7.2,13
		c3,3.4,6.7,6.1,10.9,7.8c4.5,1.8,9.4,2.6,14.2,2.6c4.3,0.1,8.5-0.5,12.6-1.7c3.1-1,6.2-2.2,9.1-3.7c2.2-1.1,4.3-2.3,6.4-3.7
		c1.3-1,2.8-1.6,4.4-1.7c1.5-0.1,2.9,0.6,3.7,1.8l5.5,7.1c-2.5,3-5.4,5.5-8.6,7.6c-3.4,2.2-7,3.9-10.8,5.3
		c-3.9,1.4-7.8,2.4-11.9,3.1c-4,0.7-8.1,1-12.1,1c-7.2,0.1-14.4-1.2-21.2-3.9c-6.4-2.5-12.1-6.4-16.8-11.4
		c-4.9-5.4-8.7-11.7-11-18.5c-2.7-8.2-4.1-16.8-3.9-25.4c-0.1-7.4,1.1-14.7,3.5-21.7c2.2-6.4,5.7-12.4,10.2-17.5
		c4.6-5,10.1-8.9,16.3-11.6C3319.6,940.1,3327,938.7,3334.4,938.8z M3334.8,953.2c-9.4,0-16.8,2.7-22.2,8.1s-8.8,13-10.1,22.6h60.6
		c0-4.2-0.6-8.4-1.9-12.4c-1.2-3.6-3.1-6.9-5.6-9.7c-2.5-2.7-5.5-4.9-8.9-6.4C3343,953.9,3338.9,953.1,3334.8,953.2L3334.8,953.2z"
		/>
	<path class="st3" d="M3479.2,1051.5c-2.5,0.2-4.8-1.5-5.2-4l-1.8-13.5c-4.5,5.6-10,10.3-16.2,13.8c-6.4,3.5-13.7,5.3-21,5.2
		c-6,0.1-11.9-1.2-17.3-3.7c-5.2-2.5-9.8-6.2-13.2-10.8c-3.9-5.3-6.8-11.3-8.4-17.8c-2.1-8-3.1-16.2-2.9-24.4
		c-0.1-7.7,1-15.4,3.3-22.8c2-6.6,5.2-12.9,9.4-18.3c4-5.1,9.2-9.3,15.1-12.2c6.3-3,13.1-4.5,20.1-4.4c6-0.2,12,1,17.5,3.4
		c4.9,2.3,9.3,5.6,13,9.7v-61.5h19.5v161.2H3479.2z M3441.3,1037.2c5.9,0.1,11.7-1.4,16.8-4.4c5.1-3.2,9.6-7.4,13.2-12.4V967
		c-3.7-4.8-7.6-8.2-11.8-10.2c-4.5-2-9.3-3.1-14.2-3c-10.3,0-18.2,3.7-23.7,11s-8.3,17.9-8.3,31.5c-0.1,6.2,0.5,12.5,1.9,18.5
		c1,4.5,2.8,8.9,5.5,12.7c2.2,3.2,5.3,5.7,8.9,7.3C3433.1,1036.5,3437.2,1037.3,3441.3,1037.2L3441.3,1037.2z"/>
	<path class="st3" d="M3512.9,1039.4c0-1.8,0.3-3.7,1-5.4c0.7-1.6,1.6-3.1,2.9-4.4c3.9-4,9.9-5.2,15-3c1.6,0.7,3.1,1.7,4.4,3
		c1.2,1.3,2.2,2.8,2.9,4.4c1.5,3.4,1.5,7.3,0,10.8c-0.7,1.6-1.7,3.1-2.9,4.3c-1.2,1.3-2.7,2.2-4.4,2.9c-3.4,1.4-7.3,1.4-10.7,0
		c-1.6-0.6-3.1-1.6-4.3-2.9C3514.1,1046.6,3512.7,1043.1,3512.9,1039.4L3512.9,1039.4z"/>
</g>
<g>
	<g>
		<path d="M1076.2,367.1h229.9v66.1h-230.2v251h84.3v63.3H911.5v-62.9h73.4l3.9-562.9H908V58c2.3-0.1,4.5-0.3,6.7-0.3
			c134.9,0,269.8,0,404.7,0h57l3.7,165.2h-74.7l-4-100.5h-222.8L1076.2,367.1z"/>
	</g>
	<g>
		<g>
			<path d="M1902.5,302.6c-18.8-41.5-44.2-75.1-75.5-99.8c-31.8-25-70.4-41.6-115-49.3c-9.2-1.6-18.8-2.6-28-3.7
				c-4.2-0.5-8.6-1-12.9-1.5h-34.6c-3.5,0.4-6.9,0.8-10.4,1.1c-7.4,0.8-15.1,1.6-22.5,2.8c-51.2,8-95.2,26.8-130.8,55.7
				c-34.8,28.4-62.5,67.4-82.2,115.9c-13.6,33.4-21,70.6-23.3,117c-2.6,52.9,2.9,98.5,16.7,139.4c23.5,69.5,66.3,120.1,127.3,150.5
				c61.6,30.7,130.3,38.2,204.4,22.2c46-9.9,85.6-29.9,117.8-59.3c30.4-27.9,55-65.1,73-110.5c15.7-39.8,23.1-83.6,23.2-137.8
				C1929.6,388.8,1921,343.4,1902.5,302.6z M1847,452.4c-0.6,54.6-8.1,95.3-24.3,132.1c-24.8,55.9-60.4,90.4-108.8,105.5
				c-24.6,7.6-48.2,11.4-70.6,11.4c-44,0-83.6-14.7-118.2-44.1c-33.4-28.4-55.8-67.5-66.4-116.2c-16.4-75.6-12.7-143.2,11.4-206.6
				c21.4-56.1,57-93.9,105.9-112.2c64.5-24.2,125.2-19.1,180.6,15.3c31.8,19.7,55.1,50.5,71.3,93.9
				C1840.6,365.7,1846.5,402.9,1847,452.4L1847,452.4z"/>
		</g>
		<g>
			<path d="M3508.3,302.6c-18.8-41.5-44.2-75.1-75.5-99.8c-31.8-25-70.4-41.6-115-49.3c-9.2-1.6-18.8-2.6-28-3.7
				c-4.2-0.5-8.6-1-12.9-1.5h-34.6c-3.5,0.4-6.9,0.8-10.4,1.1c-7.4,0.8-15.1,1.6-22.5,2.8c-51.2,8-95.2,26.8-130.8,55.7
				c-34.8,28.4-62.5,67.4-82.2,115.9c-13.6,33.4-21,70.6-23.3,117c-2.6,52.9,2.9,98.5,16.7,139.4c23.5,69.5,66.3,120.1,127.3,150.5
				c61.6,30.7,130.3,38.2,204.3,22.2c46-9.9,85.7-29.9,117.8-59.3c30.4-27.9,55-65.1,73-110.5c15.7-39.8,23.1-83.6,23.2-137.8
				C3535.4,388.8,3526.8,343.4,3508.3,302.6z M3452.8,452.7c-0.6,54.5-8.1,95.3-24.5,132c-24.7,55.6-60.2,90-108.4,105
				c-24.7,7.7-48.4,11.6-70.9,11.6c-43.9,0-83.4-14.6-118-43.8c-33.5-28.3-55.9-67.3-66.5-116.1c-16.6-75.8-12.8-143.6,11.5-207.2
				c21.5-56.4,57.2-94,106.1-112c69.3-25.4,132.7-18.3,188.4,21.1c30.8,21.8,52.8,54.6,67.2,100.1
				C3447.6,374.5,3452.4,409.2,3452.8,452.7L3452.8,452.7z"/>
		</g>
		<g>
			<path d="M2455.1,696.4c-6.8,0-13.2,0.1-19.7-0.1c-16-0.4-28.7-6.1-37.8-16.8c-7.9-9.3-14.1-17.8-18.9-25.9
				c-15.2-25.5-30.5-51.5-45.2-76.7c-6.6-11.4-13.3-22.7-19.9-34l-1.8-3c-2.9-5-6-10.3-9.3-15.1c-16-23.3-32.8-44.6-63.8-49.5
				l-11.6-1.8l10.8-4.8c0.6-0.3,1-0.5,1.4-0.6c0.8-0.4,1.4-0.7,2.3-0.9c2.1-0.4,4.2-0.7,6.1-1c54.8-7.8,93.7-37,115.8-86.7
				c12.3-27.7,16.1-58.6,11.5-94.5c-5.3-41.8-25.3-73.7-59.3-94.9c-32.2-20-69.7-30-114.4-30.6c-59-0.8-118.9-0.7-176.9-0.7
				c-22.7,0-46.2,0-69.4,0c-0.5,0-1.1,0-1.6,0.1v53.8h65.7l-3.4,483.9h-62.2v52.9h206.6v-53.4h-67.5V488l3.7,0.2
				c7.1,0.3,14,0.6,20.9,0.9c15.9,0.6,30.9,1.2,46.2,2.3c17.5,1.2,31.8,9.5,42.6,24.6c2.3,3.2,4.7,6.5,7,9.6
				c6.1,8.3,12.4,16.8,17.8,25.9c17.2,28.7,34.5,58,51.1,86.4c9.2,15.7,18.8,32,28.3,48c3.7,6.3,7.7,12.5,11.6,18.6
				c1.6,2.5,3.2,5,4.8,7.5c14.6,23.1,36.1,35.5,63.7,36.9c17.1,0.9,34.6,1,51.5,1.1c6.3,0,12.7,0.1,19.1,0.2v-53.4
				C2458.8,696.4,2456.9,696.4,2455.1,696.4z M2177,433.7c-10.9,0.3-21.8,0.4-32.7,0.4c-7.2,0-14.3,0-21.4-0.1
				c-6.9,0-13.8-0.1-20.7-0.1c-1.4,0-2.8-0.1-3.8-0.2c-0.4,0-0.8-0.1-1.1-0.1l-3.2-0.2V214.5l2.5-0.7c0.6-0.2,1.1-0.3,1.5-0.5
				c0.8-0.3,1.6-0.6,2.6-0.5c9.4,0.1,18.9,0.2,28.1,0.3c23.2,0.2,47.2,0.4,70.9,1.4c16.9,0.7,34,5.7,50.8,14.7
				c23.5,12.6,38.6,31.9,44.8,57.1c6.2,25,5.6,49.6-1.6,73c-11.3,36.5-38.4,60.2-80.7,70.3C2202.4,432,2190.6,433.4,2177,433.7z"/>
		</g>
		<g>
			<path d="M3006.1,159.1v53.5h-36.8c-15.5,0-16.8,0.9-22.4,15.3l-67.1,172.2c-44.7,114.8-89.4,229.6-134.2,344.4
				c-0.6,1.6-1.3,3.3-2,5c-0.1,0.2-0.2,0.3-0.2,0.5h-13.8c-22.6,0-46,0-69-0.2c-0.7-0.4-1.9-1.9-2.4-3.2
				c-16.3-41.3-32.8-83.4-48.7-124.1l-25.1-64.2c-43.3-110.6-88-224.9-131.9-337.4c-2.4-6.2-6-8.6-12.5-8.4
				c-11.2,0.2-22.2,0.2-33.9,0.1c-3.3,0-6.7,0-10,0v-53.5h205.7v53.4h-64.7l1.7,4.7c23.5,66,47.7,132.7,71.2,197.2
				c31.7,87.2,64.5,177.3,95.1,265.3l3.3,9.5l3.3-9.5c30.1-87.3,62.2-177,93.1-263.7c23.2-65,47.2-132.2,70.5-198.7l1.6-4.7h-71.7
				v-53.5H3006.1z"/>
		</g>
	</g>
</g>
</svg>
